<svg width="2000" height="1000" xmlns="http://www.w3.org/2000/svg" version="1.1">


<!-- internal style sheet -->
<style type="text/css"><![CDATA[
 rect.background{fill:white}
 rect{fill:none; stroke:rgb(25,25,25); stroke-width:2}
 text{font-family:Helvetica; text-anchor:middle; fill:rgb(25,25,25)}
 line{stroke:rgb(25,25,25); stroke-width:4}
 path{fill:none; stroke:rgb(25,25,25); stroke-width:2}
 circle{fill:white; stroke:black; stroke-width:2}

 path.p0{fill:rgb(0,102,255); stroke:rgb(25,25,25); stroke-width:2}
 path.ps0{fill:rgb(0,77,191); stroke:rgb(20,20,20); stroke-width:2}
 rect.r0{fill:rgb(0,102,255); stroke:rgb(25,25,25); stroke-width:2}
 path.p1{fill:rgb(255,0,0); stroke:rgb(25,25,25); stroke-width:2}
 path.ps1{fill:rgb(191,0,0); stroke:rgb(20,20,20); stroke-width:2}
 rect.r1{fill:rgb(255,0,0); stroke:rgb(25,25,25); stroke-width:2}
]]></style>

 <rect class="background" width="2000" height="1000"/>
  <!-- cells -->
  <path class="p1" d="M 1840 920 L 1830 789 L 1467 846 L 1473 920 L 1840 920"/>
  <line x1="1840" y1="920" x2="1473" y2="920"/>
  <line x1="1840" y1="920" x2="1830" y2="789"/>
  <path class="p1" d="M 1830 789 L 1799 660 L 1449 774 L 1467 846 L 1830 789"/>
  <line x1="1830" y1="789" x2="1799" y2="660"/>
  <path class="p1" d="M 1473 920 L 1467 846 L 1104 904 L 1105 920 L 1473 920"/>
  <line x1="1473" y1="920" x2="1105" y2="920"/>
  <line x1="1105" y1="920" x2="1104" y2="904"/>
  <path class="p1" d="M 1467 846 L 1449 774 L 1100 888 L 1104 904 L 1467 846"/>
  <line x1="1104" y1="904" x2="1100" y2="888"/>
  <path class="p1" d="M 1799 660 L 1748 539 L 1421 705 L 1449 774 L 1799 660"/>
  <line x1="1799" y1="660" x2="1748" y2="539"/>
  <path class="p1" d="M 1748 539 L 1680 426 L 1382 642 L 1421 705 L 1748 539"/>
  <line x1="1748" y1="539" x2="1680" y2="426"/>
  <path class="p1" d="M 1449 774 L 1421 705 L 1094 872 L 1100 888 L 1449 774"/>
  <line x1="1100" y1="888" x2="1094" y2="872"/>
  <path class="p1" d="M 1421 705 L 1382 642 L 1085 858 L 1094 872 L 1421 705"/>
  <line x1="1094" y1="872" x2="1085" y2="858"/>
  <path class="p1" d="M 1680 426 L 1594 326 L 1334 586 L 1382 642 L 1680 426"/>
  <line x1="1680" y1="426" x2="1594" y2="326"/>
  <path class="p1" d="M 1594 326 L 1494 240 L 1278 538 L 1334 586 L 1594 326"/>
  <line x1="1594" y1="326" x2="1494" y2="240"/>
  <path class="p1" d="M 1382 642 L 1334 586 L 1074 846 L 1085 858 L 1382 642"/>
  <line x1="1085" y1="858" x2="1074" y2="846"/>
  <path class="p1" d="M 1334 586 L 1278 538 L 1062 835 L 1074 846 L 1334 586"/>
  <line x1="1074" y1="846" x2="1062" y2="835"/>
  <path class="p1" d="M 1494 240 L 1381 172 L 1215 499 L 1278 538 L 1494 240"/>
  <line x1="1494" y1="240" x2="1381" y2="172"/>
  <path class="p1" d="M 1381 172 L 1260 121 L 1146 471 L 1215 499 L 1381 172"/>
  <line x1="1381" y1="172" x2="1260" y2="121"/>
  <path class="p1" d="M 1278 538 L 1215 499 L 1048 826 L 1062 835 L 1278 538"/>
  <line x1="1062" y1="835" x2="1048" y2="826"/>
  <path class="p1" d="M 1215 499 L 1146 471 L 1032 820 L 1048 826 L 1215 499"/>
  <line x1="1048" y1="826" x2="1032" y2="820"/>
  <path class="p1" d="M 1260 121 L 1131 90 L 1074 453 L 1146 471 L 1260 121"/>
  <line x1="1260" y1="121" x2="1131" y2="90"/>
  <path class="p1" d="M 1131 90 L 1000 80 L 1000 447 L 1074 453 L 1131 90"/>
  <line x1="1131" y1="90" x2="1000" y2="80"/>
  <path class="p1" d="M 1146 471 L 1074 453 L 1016 816 L 1032 820 L 1146 471"/>
  <line x1="1032" y1="820" x2="1016" y2="816"/>
  <path class="p1" d="M 1074 453 L 1000 447 L 1000 815 L 1016 816 L 1074 453"/>
  <line x1="1016" y1="816" x2="1000" y2="815"/>
  <path class="p1" d="M 1000 80 L 869 90 L 926 453 L 1000 447 L 1000 80"/>
  <line x1="1000" y1="80" x2="869" y2="90"/>
  <path class="p1" d="M 869 90 L 740 121 L 854 471 L 926 453 L 869 90"/>
  <line x1="869" y1="90" x2="740" y2="121"/>
  <path class="p1" d="M 1000 447 L 926 453 L 984 816 L 1000 815 L 1000 447"/>
  <line x1="1000" y1="815" x2="984" y2="816"/>
  <path class="p1" d="M 926 453 L 854 471 L 968 820 L 984 816 L 926 453"/>
  <line x1="984" y1="816" x2="968" y2="820"/>
  <path class="p1" d="M 740 121 L 619 172 L 785 499 L 854 471 L 740 121"/>
  <line x1="740" y1="121" x2="619" y2="172"/>
  <path class="p1" d="M 619 172 L 506 240 L 722 538 L 785 499 L 619 172"/>
  <line x1="619" y1="172" x2="506" y2="240"/>
  <path class="p1" d="M 854 471 L 785 499 L 952 826 L 968 820 L 854 471"/>
  <line x1="968" y1="820" x2="952" y2="826"/>
  <path class="p1" d="M 785 499 L 722 538 L 938 835 L 952 826 L 785 499"/>
  <line x1="952" y1="826" x2="938" y2="835"/>
  <path class="p1" d="M 506 240 L 406 326 L 666 586 L 722 538 L 506 240"/>
  <line x1="506" y1="240" x2="406" y2="326"/>
  <path class="p1" d="M 406 326 L 320 426 L 618 642 L 666 586 L 406 326"/>
  <line x1="406" y1="326" x2="320" y2="426"/>
  <path class="p1" d="M 722 538 L 666 586 L 926 846 L 938 835 L 722 538"/>
  <line x1="938" y1="835" x2="926" y2="846"/>
  <path class="p1" d="M 666 586 L 618 642 L 915 858 L 926 846 L 666 586"/>
  <line x1="926" y1="846" x2="915" y2="858"/>
  <path class="p1" d="M 320 426 L 252 539 L 579 705 L 618 642 L 320 426"/>
  <line x1="320" y1="426" x2="252" y2="539"/>
  <path class="p1" d="M 252 539 L 201 660 L 551 774 L 579 705 L 252 539"/>
  <line x1="252" y1="539" x2="201" y2="660"/>
  <path class="p1" d="M 618 642 L 579 705 L 906 872 L 915 858 L 618 642"/>
  <line x1="915" y1="858" x2="906" y2="872"/>
  <path class="p1" d="M 579 705 L 551 774 L 900 888 L 906 872 L 579 705"/>
  <line x1="906" y1="872" x2="900" y2="888"/>
  <path class="p1" d="M 201 660 L 170 789 L 533 846 L 551 774 L 201 660"/>
  <line x1="201" y1="660" x2="170" y2="789"/>
  <path class="p1" d="M 170 789 L 160 920 L 528 920 L 533 846 L 170 789"/>
  <line x1="160" y1="920" x2="528" y2="920"/>
  <line x1="170" y1="789" x2="160" y2="920"/>
  <path class="p1" d="M 551 774 L 533 846 L 896 904 L 900 888 L 551 774"/>
  <line x1="900" y1="888" x2="896" y2="904"/>
  <path class="p1" d="M 533 846 L 528 920 L 895 920 L 896 904 L 533 846"/>
  <line x1="528" y1="920" x2="895" y2="920"/>
  <line x1="896" y1="904" x2="895" y2="920"/>

</svg>